<?xml version="1.0" encoding="UTF-8" standalone="no"?>
<svg
   xmlns:dc="http://purl.org/dc/elements/1.1/"
   xmlns:cc="http://creativecommons.org/ns#"
   xmlns:rdf="http://www.w3.org/1999/02/22-rdf-syntax-ns#"
   xmlns:svg="http://www.w3.org/2000/svg"
   xmlns="http://www.w3.org/2000/svg"
   xmlns:sodipodi="http://sodipodi.sourceforge.net/DTD/sodipodi-0.dtd"
   xmlns:inkscape="http://www.inkscape.org/namespaces/inkscape"
   viewBox="0 -91 512 512"
   version="1.1"
   id="svg6"
   sodipodi:docname="google-mas.svg"
   inkscape:version="1.0.2-2 (e86c870879, 2021-01-15)">
  <metadata
     id="metadata12">
    <rdf:RDF>
      <cc:Work
         rdf:about="">
        <dc:format>image/svg+xml</dc:format>
        <dc:type
           rdf:resource="http://purl.org/dc/dcmitype/StillImage" />
      </cc:Work>
    </rdf:RDF>
  </metadata>
  <defs
     id="defs10" />
  <sodipodi:namedview
     pagecolor="#ffffff"
     bordercolor="#666666"
     borderopacity="1"
     objecttolerance="10"
     gridtolerance="10"
     guidetolerance="10"
     inkscape:pageopacity="0"
     inkscape:pageshadow="2"
     inkscape:window-width="872"
     inkscape:window-height="480"
     id="namedview8"
     showgrid="false"
     inkscape:zoom="1.0507812"
     inkscape:cx="256"
     inkscape:cy="256"
     inkscape:window-x="0"
     inkscape:window-y="0"
     inkscape:window-maximized="0"
     inkscape:current-layer="svg6" />
  <path
     d="m166 60c34.667969 0 66.027344 17.789062 84 42.300781l42.597656-42.902343c-25.476562-33.128907-74.511718-59.398438-126.597656-59.398438-91.199219 0-166 73.800781-166 165s74.800781 165 166 165c75.601562 0 139.199219-50.699219 158.699219-120 4.199219-14.402344 6.300781-29.402344 6.300781-45v-15h-150v59.988281h79.5c-16.5 35.402344-52.800781 60.011719-94.5 60.011719-57.898438 0-106-47.101562-106-105s48.101562-105 106-105zm0 0"
     id="path2"
     style="fill:#ffffff" />
  <path
     d="m466 90h-60v45h-45v60h45v45h60v-45h46v-60h-46zm0 0"
     id="path4"
     style="fill:#ffffff" />
</svg>
